# File created by Blade
# Date/Time:  Wed Jan 21 16:02:01 2015
# Frame Rate: 120.000 fps
#------------------------------------------------------
:FULLY-SPECIFIED
:DEGREES
1005
root 19.195693 32.679096 -17.665892 -171.892141 3.165207 -178.003610
Spine -20.223077 8.015074 0.599840
Head 12.558526 -6.088082 -6.364316
LeftShoulder -13.294766 -29.214007 -3.680933
LeftArm -42.315315 -8.867715 -48.880039
LeftForeArm 0.444406 -0.000000 7.556960
LeftHand -1.561611 -0.000000 2.647274
LeftHandThumb1 -26.253704 0.000000 33.147579
RightShoulder -9.982668 17.272564 -45.728008
RightArm 46.584598 47.642571 -6.740689
RightForeArm -42.425931 -0.000000 8.462868
RightHand -0.274691 0.000000 -17.764866
RightHandThumb1 -24.326973 -0.000000 -32.862282
LeftUpLeg 12.656056 1.415406 -17.893605
LeftLeg -1.674418 -0.000000 0.000000
LeftFoot -33.606913 18.875162 -14.706007
LeftToeBase 18.142222 -0.000000 -0.000000
RightUpLeg -18.757182 11.212898 21.480425
RightLeg -3.419607 -0.000000 0.000000
RightFoot -1.870853 -33.350120 -2.657782
RightToeBase 16.565889 -0.000000 -0.000000
1006
root 19.203461 32.678764 -17.669759 -171.890397 3.160839 -178.023468
Spine -20.202801 7.986221 0.582205
Head 12.582737 -6.104550 -6.335531
LeftShoulder -13.303797 -29.218570 -3.682010
LeftArm -42.293802 -8.814342 -48.926185
LeftForeArm 0.478057 -0.000000 7.515044
LeftHand -1.562716 -0.000000 2.602216
LeftHandThumb1 -26.253704 0.000000 33.147579
RightShoulder -10.014109 17.265002 -45.707806
RightArm 46.572969 47.619861 -6.792607
RightForeArm -42.420166 -0.000000 8.446512
RightHand -0.278074 -0.000000 -17.764705
RightHandThumb1 -24.326973 -0.000000 -32.862282
LeftUpLeg 12.653333 1.394702 -17.902897
LeftLeg -1.658061 -0.000000 0.000000
LeftFoot -33.611785 18.897693 -14.709805
LeftToeBase 18.087928 -0.000000 -0.000000
RightUpLeg -18.748210 11.193867 21.476509
RightLeg -3.424260 -0.000000 0.000000
RightFoot -1.880400 -33.304332 -2.680634
RightToeBase 16.650906 -0.000000 -0.000000
1007
root 19.210993 32.678115 -17.673962 -171.889672 3.157878 -178.033426
Spine -20.176912 7.964992 0.576778
Head 12.597802 -6.140658 -6.316377
LeftShoulder -13.307372 -29.229528 -3.685780
LeftArm -42.294575 -8.777738 -48.973644
LeftForeArm 0.477955 -0.000000 7.488325
LeftHand -1.537342 -0.000000 2.626493
LeftHandThumb1 -26.253704 0.000000 33.147579
RightShoulder -10.067777 17.284829 -45.719114
RightArm 46.626254 47.614932 -6.717225
RightForeArm -42.449655 -0.000000 8.488510
RightHand -0.320389 0.000000 -17.748368
RightHandThumb1 -24.326973 -0.000000 -32.862282
LeftUpLeg 12.657435 1.404469 -17.899925
LeftLeg -1.654683 -0.000000 0.000000
LeftFoot -33.621286 18.905254 -14.695249
LeftToeBase 18.092435 -0.000000 -0.000000
RightUpLeg -18.736630 11.185496 21.482928
RightLeg -3.434504 -0.000000 0.000000
RightFoot -1.876305 -33.289263 -2.681132
RightToeBase 16.620794 -0.000000 -0.000000
1008
root 19.218055 32.677509 -17.677853 -171.890458 3.166097 -178.042417
Spine -20.150678 7.946400 0.574606
Head 12.605063 -6.178189 -6.305216
LeftShoulder -13.309020 -29.215879 -3.696863
LeftArm -42.292076 -8.757517 -49.022233
LeftForeArm 0.469745 -0.000000 7.498926
LeftHand -1.492735 -0.000000 2.581485
LeftHandThumb1 -26.253704 0.000000 33.147579
RightShoulder -10.105952 17.240863 -45.709947
RightArm 46.729500 47.726673 -6.575374
RightForeArm -42.512389 -0.000000 8.510543
RightHand -0.324622 -0.000000 -17.769962
RightHandThumb1 -24.326973 -0.000000 -32.862282
LeftUpLeg 12.658698 1.439202 -17.894830
LeftLeg -1.647598 -0.000000 0.000000
LeftFoot -33.624175 18.884575 -14.703860
LeftToeBase 18.066390 -0.000000 -0.000000
RightUpLeg -18.727596 11.165530 21.494340
RightLeg -3.426497 -0.000000 0.000000
RightFoot -1.879136 -33.241974 -2.693060
RightToeBase 16.612998 -0.000000 -0.000000
1009
root 19.224917 32.676395 -17.681546 -171.888736 3.184675 -178.046235
Spine -20.130309 7.957169 0.571442
Head 12.615709 -6.269327 -6.303290
LeftShoulder -13.289257 -29.177425 -3.712835
LeftArm -42.285379 -8.810434 -49.035321
LeftForeArm 0.497091 -0.000000 7.496992
LeftHand -1.470465 -0.000000 2.598073
LeftHandThumb1 -26.253704 0.000000 33.147579
RightShoulder -10.085847 17.256913 -45.691750
RightArm 46.651048 47.718130 -6.651778
RightForeArm -42.426889 -0.000000 8.506593
RightHand -0.265242 -0.000000 -17.832720
RightHandThumb1 -24.326973 -0.000000 -32.862282
LeftUpLeg 12.656614 1.476101 -17.888175
LeftLeg -1.640797 -0.000000 0.000000
LeftFoot -33.633017 18.888789 -14.676077
LeftToeBase 18.056461 -0.000000 -0.000000
RightUpLeg -18.722180 11.176840 21.502326
RightLeg -3.417218 -0.000000 0.000000
RightFoot -1.879021 -33.229150 -2.689258
RightToeBase 16.576849 -0.000000 -0.000000
1010
root 19.231095 32.675874 -17.685965 -171.895521 3.206588 -178.054269
Spine -20.088118 7.959334 0.561525
Head 12.598206 -6.228552 -6.276644
LeftShoulder -13.285607 -29.185008 -3.713877
LeftArm -42.320918 -8.831907 -49.029900
LeftForeArm 0.516355 -0.000000 7.527078
LeftHand -1.474064 -0.000000 2.606180
LeftHandThumb1 -26.253704 0.000000 33.147579
RightShoulder -10.105228 17.235994 -45.653948
RightArm 46.659505 47.794837 -6.638962
RightForeArm -42.370451 0.000000 8.519067
RightHand -0.230032 0.000000 -17.851894
RightHandThumb1 -24.326973 -0.000000 -32.862282
LeftUpLeg 12.662985 1.527215 -17.888789
LeftLeg -1.639242 -0.000000 0.000000
LeftFoot -33.647102 18.888635 -14.679973
LeftToeBase 18.126082 -0.000000 -0.000000
RightUpLeg -18.713869 11.164306 21.504824
RightLeg -3.396784 -0.000000 0.000000
RightFoot -1.922390 -33.124511 -2.621373
RightToeBase 16.631252 -0.000000 -0.000000
